<?xml version="1.0" encoding="UTF-8"?>
<svg width="26px" height="25px" viewBox="0 0 26 25" version="1.1" xmlns="http://www.w3.org/2000/svg" xmlns:xlink="http://www.w3.org/1999/xlink">
    <!-- Generator: sketchtool 63.1 (101010) - https://sketch.com -->
    <title>BC311224-2768-449D-A110-ED43E16E63BE</title>
    <desc>Created with sketchtool.</desc>
    <g id="Design-Mockups-v3" stroke="none" stroke-width="1" fill="none" fill-rule="evenodd">
        <g id="monstro-microsite-careers-individual-1-mobile" transform="translate(-330.000000, -361.000000)" fill="#C5A883" fill-rule="nonzero" stroke="#8C6F5E" stroke-width="0.5">
            <g id="accordion-item-expanded" transform="translate(20.000000, 359.000000)">
                <g id="icon-collapse" transform="translate(311.000000, 2.500000)">
                    <g>
                        <path d="M12,0 C5.38285714,0 0,5.38285714 0,12 C0,18.6171429 5.38285714,24 12,24 C18.6171429,24 24,18.6171429 24,12 C24,5.38285714 18.6171429,0 12,0 Z M12,23.6326531 C5.58587755,23.6326531 0.367346939,18.4141224 0.367346939,12 C0.367346939,5.58587755 5.58587755,0.367346939 12,0.367346939 C18.4141224,0.367346939 23.6326531,5.58587755 23.6326531,12 C23.6326531,18.4141224 18.4141224,23.6326531 12,23.6326531 Z" id="Shape"></path>
                        <path d="M18.8152579,11.8152579 L5.18474206,11.8152579 C5.08274967,11.8152579 5,11.8980076 5,12 C5,12.1019924 5.08274967,12.1847421 5.18474206,12.1847421 L18.8152579,12.1847421 C18.9172503,12.1847421 19,12.1019924 19,12 C19,11.8980076 18.9172503,11.8152579 18.8152579,11.8152579 Z" id="Path"></path>
                    </g>
                </g>
            </g>
        </g>
    </g>
</svg>