<?xml version="1.0" encoding="UTF-8"?>
<svg width="30px" height="30px" viewBox="0 0 30 30" version="1.1" xmlns="http://www.w3.org/2000/svg" xmlns:xlink="http://www.w3.org/1999/xlink">
    <!-- Generator: sketchtool 63.1 (101010) - https://sketch.com -->
    <title>92B38291-E620-4E68-A2A1-5340DAD6A88F</title>
    <desc>Created with sketchtool.</desc>
    <g id="Design-Mockups-v3" stroke="none" stroke-width="1" fill="none" fill-rule="evenodd">
        <g id="monstro-menu-mobile" transform="translate(-324.000000, -24.000000)" fill="#8C6F5E" fill-rule="nonzero" stroke="#8C6F5E" stroke-width="0.5">
            <g id="icon-close" transform="translate(325.000000, 25.000000)">
                <path d="M13.9961541,13.0812826 L26.9253725,0.186586208 C27.1761369,-0.0328615254 27.2068692,-0.000987277201 27.4293747,0.0051421445 C27.9161636,0.0823766241 28.1570878,0.688009309 27.8153695,1.07416601 L14.886151,13.9688624 L27.8153695,26.8635587 C27.9862349,27.0572616 27.9948384,27.1430767 28,27.2877536 C28.0145079,27.7720187 27.3543975,28.128768 26.9253851,27.7511793 L13.9961666,14.856483 L1.06694823,27.7511793 C0.503942224,28.2464605 0.255654405,27.88726 0.101992881,27.6604589 C-0.0627267337,27.4201717 -0.020930044,27.0879401 0.176976432,26.8635713 L13.1061949,13.9688749 L0.176976432,1.07417857 C-0.175818846,0.675750466 0.0958470495,-0.0487955111 0.720314516,0.0100507034 C0.978455176,0.0676697781 0.918224139,0.0566380745 1.0669734,0.186589347 L13.9961541,13.0812826 Z" id="Path"></path>
            </g>
        </g>
    </g>
</svg>