<?xml version="1.0" encoding="UTF-8"?>
<svg width="38px" height="38px" viewBox="0 0 38 38" version="1.1" xmlns="http://www.w3.org/2000/svg" xmlns:xlink="http://www.w3.org/1999/xlink">
    <!-- Generator: sketchtool 63.1 (101010) - https://sketch.com -->
    <title>86B321B0-B1A9-47BA-950D-01B2FC6322E8</title>
    <desc>Created with sketchtool.</desc>
    <g id="Design-Mockups-v3" stroke="none" stroke-width="1" fill="none" fill-rule="evenodd">
        <g id="monstro-menu-mobile" transform="translate(-89.000000, -595.000000)" fill="#8C6F5E" fill-rule="nonzero">
            <g id="icon-social-facebook" transform="translate(89.000000, 596.000000)">
                <path d="M18.778,-0.405 C8.56074112,-0.405 0.278,7.87958008 0.278,18.0957513 C0.278,28.3134251 8.56074112,36.595 18.778,36.595 C28.9952589,36.595 37.278,28.3134251 37.278,18.0957513 C37.278,7.87958008 28.9945076,-0.405 18.778,-0.405 Z M23.8463987,18.1018021 L20.5304567,18.1018021 C20.5304567,23.25171 20.5304567,29.595 20.5304567,29.595 L15.6156458,29.595 C15.6156458,29.595 15.6156458,23.3167074 15.6156458,18.1018021 L13.278,18.1018021 L13.278,14.0440011 L15.6156458,14.0440011 L15.6156458,11.4146307 C15.6156458,9.53273002 16.5348399,6.595 20.5763386,6.595 L24.2157872,6.6086041 L24.2157872,10.5500145 C24.2157872,10.5500145 22.002567,10.5500145 21.5732987,10.5500145 C21.1416974,10.5500145 20.5312344,10.7593665 20.5312344,11.654214 L20.5312344,14.0447568 L24.278,14.0447568 L23.8463987,18.1018021 Z" id="Shape"></path>
            </g>
        </g>
    </g>
</svg>