<?xml version="1.0" encoding="UTF-8"?>
<svg width="28px" height="31px" viewBox="0 0 28 31" version="1.1" xmlns="http://www.w3.org/2000/svg" xmlns:xlink="http://www.w3.org/1999/xlink">
    <!-- Generator: Sketch 63.1 (92452) - https://sketch.com -->
    <title>icon-btn-applyLI@3x</title>
    <desc>Created with Sketch.</desc>
    <g id="Design-Mockups-v3" stroke="none" stroke-width="1" fill="none" fill-rule="evenodd">
        <g id="monstro-microsite-careers-desktop" transform="translate(-1049.000000, -528.000000)">
            <g id="Group-4-Copy-3" transform="translate(254.000000, 513.000000)">
                <g id="Group-5">
                    <g id="Group-2" transform="translate(562.000000, 2.978873)">
                        <g id="Group-6">
                            <g id="icon-btn-applyLI" transform="translate(233.000000, 12.908451)">
                                <rect id="Rectangle" stroke="#979797" fill="#FFFFFF" x="0.5" y="0.5" width="26.7827594" height="28.1267606" rx="6"></rect>
                                <path d="M25.7287746,7.81597009e-14 L2.05229853,7.81597009e-14 C0.919065487,7.81597009e-14 -2.27373675e-13,0.934623625 -2.27373675e-13,2.08650625 L-2.27373675e-13,27.0408399 C-2.27373675e-13,28.1921369 0.919065487,29.1267606 2.05229853,29.1267606 L25.7287746,29.1267606 C26.863694,29.1267606 27.7827594,28.1915513 27.7827594,27.0408399 L27.7827594,2.08650625 C27.7827594,0.934038021 26.8631318,7.81597009e-14 25.7287746,7.81597009e-14 Z M8.54854137,24.4664789 L4.27427068,24.4664789 L4.27427068,11.068169 L8.54854137,11.068169 L8.54854137,24.4664789 Z M6.12994953,9.32056338 L6.10132036,9.32056338 C4.66757179,9.32056338 3.73998685,8.28461159 3.73998685,6.99042254 C3.73998685,5.667407 4.69620095,4.66028169 6.15800611,4.66028169 C7.62038385,4.66028169 8.5199122,5.667407 8.54854137,6.99042254 C8.54854137,8.28461159 7.61981126,9.32056338 6.12994953,9.32056338 Z M23.5079261,24.4664789 L19.3073691,24.4664789 L19.3073691,17.4625255 C19.3073691,15.7036695 18.6996529,14.503125 17.1797997,14.503125 C16.0195119,14.503125 15.328516,15.3126184 15.0240952,16.0947207 C14.9132433,16.3738764 14.8862337,16.7643448 14.8862337,17.1559787 L14.8862337,24.4658961 L10.6856767,24.4658961 C10.6856767,24.4658961 10.7408213,12.603817 10.6856767,11.377047 L14.8862337,11.377047 L14.8862337,13.2297319 C15.4444323,12.3380654 16.4426624,11.068169 18.6726433,11.068169 C21.4360639,11.068169 23.5084888,12.9395032 23.5084888,16.9601617 L23.5084888,24.4664789 L23.5079261,24.4664789 Z" id="Shape-Copy-22" fill="#0177B5" fill-rule="nonzero"></path>
                            </g>
                        </g>
                    </g>
                </g>
            </g>
        </g>
    </g>
</svg>