<?xml version="1.0" encoding="UTF-8"?>
<svg width="36px" height="36px" viewBox="0 0 36 36" version="1.1" xmlns="http://www.w3.org/2000/svg" xmlns:xlink="http://www.w3.org/1999/xlink">
    <!-- Generator: sketchtool 63.1 (101010) - https://sketch.com -->
    <title>A0D2F9F6-C4EB-4E55-B499-D61BD5AFF3EE</title>
    <desc>Created with sketchtool.</desc>
    <g id="Design-Mockups-v3" stroke="none" stroke-width="1" fill="none" fill-rule="evenodd">
        <g id="monstro-menu-mobile" transform="translate(-247.000000, -596.000000)" fill="#8C6F5E" fill-rule="nonzero">
            <g id="icon-social-instagram" transform="translate(247.000000, 596.000000)">
                <path d="M20.1213192,15.8786808 C21.2928936,17.0502551 21.2928936,18.9497449 20.1213192,20.1213192 C18.9497449,21.2928936 17.0502551,21.2928936 15.8786808,20.1213192 C14.7071064,18.9497449 14.7071064,17.0502551 15.8786808,15.8786808 C17.0502551,14.7071064 18.9497449,14.7071064 20.1213192,15.8786808" id="Path"></path>
                <path d="M22.0184332,10 L13.9078341,10 C12.7281106,10 11.6958525,10.3686636 11.0322581,11.0322581 C10.3686636,11.6958525 10,12.7281106 10,13.9078341 L10,22.0184332 C10,23.1981567 10.3686636,24.2304147 11.1059908,24.9677419 C11.843318,25.6313364 12.8018433,26 13.9815668,26 L22.0184332,26 C23.1981567,26 24.2304147,25.6313364 24.8940092,24.9677419 C25.6313364,24.3041475 26,23.2718894 26,22.0921659 L26,13.9815668 C26,12.8018433 25.6313364,11.843318 24.9677419,11.1059908 C24.2304147,10.3686636 23.2718894,10 22.0184332,10 Z M17.9631336,22.9769585 C15.1612903,22.9769585 12.9493088,20.6912442 12.9493088,17.9631336 C12.9493088,15.1612903 15.235023,12.9493088 17.9631336,12.9493088 C20.6912442,12.9493088 23.0506912,15.1612903 23.0506912,17.9631336 C23.0506912,20.764977 20.764977,22.9769585 17.9631336,22.9769585 Z M23.1981567,13.9078341 C22.5345622,13.9078341 22.0184332,13.3917051 22.0184332,12.7281106 C22.0184332,12.0645161 22.5345622,11.5483871 23.1981567,11.5483871 C23.8617512,11.5483871 24.3778802,12.0645161 24.3778802,12.7281106 C24.3778802,13.3917051 23.8617512,13.9078341 23.1981567,13.9078341 Z" id="Shape"></path>
                <path d="M17.9997547,0 C8.04867081,0 0,8.04878049 0,18 C0,27.9512195 8.04867081,36 17.9997547,36 C27.9508386,36 35.9995095,27.9512195 35.9995095,18 C36.0726792,8.04878049 27.9508386,0 17.9997547,0 Z M27.58499,22.2439024 C27.58499,23.9268293 26.9996321,25.3902439 25.9752558,26.4146341 C24.9508795,27.4390244 23.4874848,27.9512195 21.8777507,27.9512195 L13.9022496,27.9512195 C12.2925154,27.9512195 10.8291207,27.4390244 9.80474445,26.4146341 C8.70719843,25.3902439 8.19501028,23.9268293 8.19501028,22.2439024 L8.19501028,14.195122 C8.19501028,10.8292683 10.4632721,8.48780488 13.9022496,8.48780488 L21.9509204,8.48780488 C23.6338243,8.48780488 25.0240493,9.07317073 26.0484255,10.097561 C27.0728018,11.1219512 27.58499,12.5121951 27.58499,14.195122 L27.58499,22.2439024 Z" id="Shape"></path>
            </g>
        </g>
    </g>
</svg>