<?xml version="1.0" encoding="UTF-8"?>
<svg width="36px" height="36px" viewBox="0 0 36 36" version="1.1" xmlns="http://www.w3.org/2000/svg" xmlns:xlink="http://www.w3.org/1999/xlink">
    <!-- Generator: sketchtool 63.1 (101010) - https://sketch.com -->
    <title>F0788497-D60C-4A5A-A57D-658FED16FF26</title>
    <desc>Created with sketchtool.</desc>
    <g id="Design-Mockups-v3" stroke="none" stroke-width="1" fill="none" fill-rule="evenodd">
        <g id="monstro-menu-mobile" transform="translate(-195.000000, -596.000000)" fill="#8C6F5E" fill-rule="nonzero">
            <g id="icon-social-linkedin" transform="translate(195.000000, 596.000000)">
                <path d="M18.000731,0 C27.9400585,0 36,8.05961421 36,18 C36,27.9425787 27.9407895,36 18.000731,36 C8.05921053,36 0,27.9425787 0,18 C0,8.05888325 8.05921053,0 18.000731,0 Z M22.8500395,15 C20.9391476,15 20.0822415,16.0408547 19.6029992,16.7743602 L19.6029992,15.2522501 L16,15.2522501 C16.0477506,16.2595288 16,26 16,26 L19.6029992,26 L19.6029992,19.9967911 C19.6029992,19.6739454 19.6264404,19.3562652 19.7219416,19.1255381 C19.9832676,18.4850121 20.5762431,17.8169367 21.5703236,17.8169367 C22.8760852,17.8169367 23.3970008,18.8035533 23.3970008,20.2481803 L23.3970008,25.9991391 L27,25.9991391 L27,19.8375205 C26.9991318,16.5350239 25.2202052,15 22.8500395,15 Z M14,15 L10,15 L10,26 L14,26 L14,15 Z M12.0124224,10 C10.7967445,10 10,10.8654158 10,12.0004633 C10,13.1095668 10.771043,14 11.9653031,14 L11.9884344,14 C13.2281002,14 14,13.1095668 14,12.0004633 C13.9768687,10.8654158 13.228957,10 12.0124224,10 Z" id="Combined-Shape"></path>
            </g>
        </g>
    </g>
</svg>