<?xml version="1.0" encoding="UTF-8"?>
<svg width="334px" height="33px" viewBox="0 0 334 33" version="1.1" xmlns="http://www.w3.org/2000/svg" xmlns:xlink="http://www.w3.org/1999/xlink">
    <!-- Generator: Sketch 63.1 (92452) - https://sketch.com -->
    <title>logo-header-desktop</title>
    <desc>Created with Sketch.</desc>
    <g id="Design-Mockups-v3" stroke="none" stroke-width="1" fill="none" fill-rule="evenodd">
        <g id="monstro-microsite-home-desktop" transform="translate(-159.000000, -50.000000)" fill-rule="nonzero">
            <g id="logo-header-desktop" transform="translate(159.000000, 50.000000)">
                <g id="Group" transform="translate(0.652000, 0.000000)">
                    <path d="M4.998,26 L4.998,12.23 L6.29,13.352 C8.126,15.324 9.928,17.296 11.764,19.234 C13.6,17.296 15.436,15.324 17.238,13.352 L18.53,12.23 L18.53,26 L23.528,26 L23.528,1.146 L23.426,1.146 L11.764,12.91 L0.102,1.146 L7.10542736e-14,1.146 L7.10542736e-14,26 L4.998,26 Z M36.312,26.476 C41.548,26.476 45.39,22.668 45.39,17.5 C45.39,12.332 41.548,8.524 36.312,8.524 C31.076,8.524 27.268,12.332 27.268,17.5 C27.268,22.668 31.076,26.476 36.312,26.476 Z M36.312,22.192 C33.898,22.192 32.062,20.322 32.062,17.5 C32.062,14.678 33.898,12.808 36.312,12.808 C38.726,12.808 40.596,14.678 40.596,17.5 C40.596,20.322 38.726,22.192 36.312,22.192 Z M53.924,26 L53.924,17.534 C53.924,14.984 55.522,13.148 57.902,13.148 C59.738,13.148 60.214,14.542 60.214,16.208 L60.214,26 L65.314,26 L65.314,15.358 C65.314,10.87 63.24,8.524 59.398,8.524 C56.508,8.524 54.264,10.564 53.55,12.128 L53.482,12.128 C53.516,11.958 53.652,11.55 53.618,10.938 L53.482,9 L48.824,9 L48.824,26 L53.924,26 Z M74.63,26.476 C78.948,26.476 81.634,24.572 81.634,21.308 C81.634,18.248 79.798,16.888 75.922,15.8 C74.12,15.256 73.27,14.814 73.27,13.964 C73.27,13.216 73.984,12.876 74.698,12.74 C75.174,12.638 75.718,12.638 76.262,12.672 C77.758,12.808 79.458,13.352 80.58,13.93 L80.58,9.578 C79.56,9.136 77.52,8.524 75.072,8.524 C71.128,8.524 68.612,10.564 68.612,13.726 C68.612,17.024 70.856,18.35 74.018,19.234 C75.956,19.812 76.976,20.186 76.976,21.104 C76.976,22.124 75.82,22.464 74.562,22.464 C72.896,22.464 70.448,21.75 68.85,20.9 L68.85,25.354 C70.074,25.898 72.046,26.476 74.63,26.476 Z M90.984,26.476 C92.99,26.476 94.554,26.068 95.302,25.694 L95.302,21.512 C94.554,21.886 93.466,22.226 92.412,22.226 C91.29,22.226 90.236,21.614 90.236,19.812 L90.236,12.978 L94.758,12.978 L94.758,9 L90.236,9 L90.236,3.9 L85.306,3.9 L85.306,9 L82.858,9 L82.858,12.978 L85.204,12.978 L85.204,19.914 C85.204,20.526 85.272,21.104 85.306,21.648 C85.68,25.218 88.298,26.476 90.984,26.476 Z M103.156,26 L103.156,18.758 C103.156,15.664 105.264,13.386 107.848,13.386 C108.494,13.386 108.902,13.556 108.97,13.59 L108.97,8.626 C108.902,8.592 108.426,8.524 107.882,8.524 C105.672,8.524 103.904,9.952 102.85,11.788 C102.816,11.584 102.816,11.176 102.816,10.666 L102.714,9 L98.09,9 L98.09,26 L103.156,26 Z M119.646,26.476 C124.882,26.476 128.724,22.668 128.724,17.5 C128.724,12.332 124.882,8.524 119.646,8.524 C114.41,8.524 110.602,12.332 110.602,17.5 C110.602,22.668 114.41,26.476 119.646,26.476 Z M119.646,22.192 C117.232,22.192 115.396,20.322 115.396,17.5 C115.396,14.678 117.232,12.808 119.646,12.808 C122.06,12.808 123.93,14.678 123.93,17.5 C123.93,20.322 122.06,22.192 119.646,22.192 Z" id="Monstro" fill="#FFFFFF"></path>
                    <path d="M172.449,22.204 L172.449,9.777 L171.48,9.777 L171.48,18.872 C171.48,19.195 171.48,19.467 171.497,19.654 C171.429,19.552 171.276,19.382 171.157,19.229 L163.167,9.556 L163.15,9.556 L163.15,22 L164.136,22 L164.136,12.888 C164.136,12.565 164.119,12.31 164.102,12.106 C164.17,12.225 164.323,12.395 164.442,12.531 L172.432,22.204 L172.449,22.204 Z M179.555,22.204 C182.003,22.204 183.822,20.3 183.822,17.75 C183.822,15.2 182.003,13.296 179.555,13.296 C177.107,13.296 175.288,15.2 175.288,17.75 C175.288,20.3 177.107,22.204 179.555,22.204 Z M179.555,21.337 C177.617,21.337 176.24,19.824 176.24,17.75 C176.24,15.676 177.617,14.163 179.555,14.163 C181.493,14.163 182.87,15.676 182.87,17.75 C182.87,19.824 181.493,21.337 179.555,21.337 Z M194.719,22.204 C197.167,22.204 198.986,20.3 198.986,17.75 C198.986,15.2 197.167,13.296 194.719,13.296 C192.271,13.296 190.452,15.2 190.452,17.75 C190.452,20.3 192.271,22.204 194.719,22.204 Z M194.719,21.337 C192.781,21.337 191.404,19.824 191.404,17.75 C191.404,15.676 192.781,14.163 194.719,14.163 C196.657,14.163 198.034,15.676 198.034,17.75 C198.034,19.824 196.657,21.337 194.719,21.337 Z M202.743,22 L202.743,17.835 C202.743,15.778 204.205,14.197 206.126,14.197 C207.911,14.197 208.098,15.506 208.098,16.9 L208.098,22 L209.033,22 L209.033,16.628 C209.033,14.588 208.387,13.296 206.211,13.296 C204.171,13.296 202.998,14.809 202.692,15.608 L202.658,15.608 C202.675,15.591 202.726,15.302 202.726,14.911 L202.726,13.5 L201.808,13.5 L201.808,22 L202.743,22 Z M215.867,22.204 C217.159,22.204 218.298,21.83 219.046,21.388 L219.046,20.436 C218.179,20.997 217.023,21.337 215.884,21.337 C213.895,21.337 212.535,19.943 212.535,17.903 L212.535,17.784 L219.352,17.784 C219.352,17.648 219.369,17.461 219.369,17.274 C219.369,15.183 218.026,13.296 215.612,13.296 C213.317,13.296 211.549,15.183 211.549,17.75 C211.549,20.402 213.351,22.204 215.867,22.204 Z M218.383,17.053 L212.569,17.053 C212.756,15.574 213.827,14.163 215.595,14.163 C217.414,14.163 218.383,15.574 218.383,17.053 Z M227.597,22 L227.597,17.903 C227.597,16.135 228.753,14.197 230.674,14.197 C232.408,14.197 232.612,15.506 232.612,16.883 L232.612,22 L233.547,22 L233.547,17.903 C233.547,16.169 234.618,14.197 236.556,14.197 C238.239,14.197 238.545,15.387 238.545,16.9 L238.545,22 L239.497,22 L239.497,16.628 C239.497,14.571 238.783,13.296 236.607,13.296 C235.196,13.296 233.938,14.35 233.462,15.506 L233.428,15.506 C233.224,14.061 232.357,13.296 230.776,13.296 C229.416,13.296 227.988,14.35 227.546,15.608 L227.512,15.608 C227.529,15.591 227.58,15.302 227.58,14.911 L227.58,13.5 L226.662,13.5 L226.662,22 L227.597,22 Z M244.461,22.204 C246.654,22.204 247.708,20.164 247.708,20.096 L247.742,20.096 C247.742,20.096 247.674,20.402 247.691,20.844 L247.691,22 L248.592,22 L248.592,16.526 C248.592,14.401 247.521,13.296 245.26,13.296 C243.934,13.296 242.846,13.687 242.37,13.942 L242.37,14.877 C242.812,14.605 243.917,14.163 245.175,14.163 C246.671,14.163 247.657,14.775 247.657,16.56 L247.657,17.206 C244.155,16.679 241.843,17.733 241.843,19.875 C241.843,21.252 242.897,22.204 244.461,22.204 Z M244.563,21.354 C243.492,21.354 242.812,20.725 242.812,19.824 C242.812,18.294 244.614,17.478 247.657,17.971 C247.657,19.586 246.348,21.354 244.563,21.354 Z M252.774,22 L252.774,17.835 C252.774,15.778 254.236,14.197 256.157,14.197 C257.87825,14.197 258.113605,15.4141696 258.12822,16.7510239 L258.129,22 L259.064,22 L259.064,16.628 C259.064,14.588 258.418,13.296 256.242,13.296 C254.202,13.296 253.029,14.809 252.723,15.608 L252.689,15.608 C252.706,15.591 252.757,15.302 252.757,14.911 L252.757,13.5 L251.839,13.5 L251.839,22 L252.774,22 Z M264.045,22.204 C266.238,22.204 267.292,20.164 267.292,20.096 L267.326,20.096 C267.326,20.096 267.258,20.402 267.275,20.844 L267.275,22 L268.176,22 L268.176,16.526 C268.176,14.401 267.105,13.296 264.844,13.296 C263.518,13.296 262.43,13.687 261.954,13.942 L261.954,14.877 C262.396,14.605 263.501,14.163 264.759,14.163 C266.255,14.163 267.241,14.775 267.241,16.56 L267.241,17.206 C263.739,16.679 261.427,17.733 261.427,19.875 C261.427,21.252 262.481,22.204 264.045,22.204 Z M264.147,21.354 C263.076,21.354 262.396,20.725 262.396,19.824 C262.396,18.294 264.198,17.478 267.241,17.971 C267.241,19.586 265.932,21.354 264.147,21.354 Z M274.33,25.638 C276.608,25.638 278.172,24.669 278.172,23.139 C278.172,21.592 276.863,20.946 274.789,20.742 C273.123,20.589 272.647,20.419 272.647,19.96 C272.647,19.603 273.259,19.263 274.024,19.212 L274.126,19.212 C275.962,19.178 277.339,17.954 277.339,16.271 C277.339,15.404 276.965,14.673 276.353,14.18 L276.421,14.18 C276.421,14.18 276.761,14.282 277.05,14.282 L278.359,14.282 L278.359,13.5 L275.299,13.5 C274.925,13.364 274.483,13.296 274.041,13.296 C272.154,13.296 270.743,14.537 270.743,16.271 C270.743,17.563 271.542,18.6 272.749,19.025 C272.12,19.229 271.695,19.637 271.695,20.096 C271.695,20.64 272.171,21.048 273.055,21.133 C271.695,21.388 270.573,22.255 270.573,23.309 C270.573,24.822 272.069,25.638 274.33,25.638 Z M274.041,18.413 C272.647,18.413 271.678,17.512 271.678,16.271 C271.678,15.047 272.647,14.129 274.041,14.129 C275.435,14.129 276.421,15.047 276.421,16.271 C276.421,17.512 275.435,18.413 274.041,18.413 Z M274.347,24.822 C272.664,24.822 271.525,24.278 271.525,23.224 C271.525,22.34 272.613,21.541 274.211,21.541 C276.506,21.541 277.22,22.323 277.22,23.19 C277.22,24.159 276.166,24.822 274.347,24.822 Z M284.088,22.204 C285.38,22.204 286.519,21.83 287.267,21.388 L287.267,20.436 C286.4,20.997 285.244,21.337 284.105,21.337 C282.116,21.337 280.756,19.943 280.756,17.903 L280.756,17.784 L287.573,17.784 C287.573,17.648 287.59,17.461 287.59,17.274 C287.59,15.183 286.247,13.296 283.833,13.296 C281.538,13.296 279.77,15.183 279.77,17.75 C279.77,20.402 281.572,22.204 284.088,22.204 Z M286.604,17.053 L280.79,17.053 C280.977,15.574 282.048,14.163 283.816,14.163 C285.635,14.163 286.604,15.574 286.604,17.053 Z M292.299,22.204 C293.965,22.204 295.257,21.473 295.257,19.926 C295.257,18.583 294.339,17.903 292.503,17.325 C291.126,16.883 290.412,16.441 290.412,15.574 C290.412,14.673 291.211,14.146 292.503,14.146 C293.234,14.146 294.101,14.384 294.764,14.724 L294.764,13.806 C294.118,13.5 293.217,13.296 292.418,13.296 C290.718,13.296 289.494,14.163 289.494,15.574 C289.494,16.951 290.65,17.682 292.112,18.141 C293.625,18.6 294.339,18.991 294.339,19.943 C294.339,20.929 293.336,21.354 292.248,21.354 C291.432,21.354 290.412,21.116 289.528,20.708 L289.528,21.643 C290.259,21.983 291.279,22.204 292.299,22.204 Z M301.377,25.944 C303.672,25.944 304.471,24.091 305.593,21.388 L308.976,13.5 L307.905,13.5 L306.596,16.645 C306.035,17.971 305.423,19.45 304.862,20.759 C304.301,19.382 303.723,18.022 303.145,16.645 L301.819,13.5 L300.765,13.5 L304.352,21.83 C303.57,23.751 302.856,25.094 301.343,25.094 C300.935,25.094 300.663,25.043 300.459,24.992 L300.459,25.808 C300.629,25.876 300.986,25.944 301.377,25.944 Z M314.416,22.204 C316.864,22.204 318.683,20.3 318.683,17.75 C318.683,15.2 316.864,13.296 314.416,13.296 C311.968,13.296 310.149,15.2 310.149,17.75 C310.149,20.3 311.968,22.204 314.416,22.204 Z M314.416,21.337 C312.478,21.337 311.101,19.824 311.101,17.75 C311.101,15.676 312.478,14.163 314.416,14.163 C316.354,14.163 317.731,15.676 317.731,17.75 C317.731,19.824 316.354,21.337 314.416,21.337 Z M324.072,22.204 C326.044,22.204 327.2,20.691 327.489,19.892 L327.523,19.892 C327.523,19.909 327.455,20.198 327.455,20.589 L327.472,22 L328.39,22 L328.39,13.5 L327.438,13.5 L327.438,17.665 C327.438,19.586 326.129,21.303 324.14,21.303 C322.435143,21.303 322.200374,20.1016378 322.185779,18.7506698 L322.185,13.5 L321.25,13.5 L321.25,18.872 C321.25,21.031 321.981,22.204 324.072,22.204 Z M331.705,22.204 C332.096,22.204 332.402,21.915 332.402,21.524 C332.402,21.116 332.096,20.827 331.705,20.827 C331.297,20.827 331.008,21.116 331.008,21.524 C331.008,21.915 331.297,22.204 331.705,22.204 Z" id="Noonemanagesyou." fill="#FFFFFF" opacity="0.56703404"></path>
                    <polygon id="Line-2" fill="#979797" points="146.348 0 146.348 33 145.348 33 145.348 0"></polygon>
                </g>
            </g>
        </g>
    </g>
</svg>