<?xml version="1.0" encoding="UTF-8"?>
<svg width="320px" height="43px" viewBox="0 0 320 43" version="1.1" xmlns="http://www.w3.org/2000/svg" xmlns:xlink="http://www.w3.org/1999/xlink">
    <!-- Generator: Sketch 63.1 (92452) - https://sketch.com -->
    <title>logo-body</title>
    <desc>Created with Sketch.</desc>
    <defs>
        <polygon id="path-1" points="0.396028113 0.0201923077 7.07228755 0.0201923077 7.07228755 7.88461538 0.396028113 7.88461538"></polygon>
        <polygon id="path-3" points="-0.573584906 14.4230769 150.912895 14.4230769 150.912895 0 -0.573584906 0"></polygon>
    </defs>
    <g id="Design-Mockups-v3" stroke="none" stroke-width="1" fill="none" fill-rule="evenodd">
        <g id="monstro-microsite-home-desktop" transform="translate(-167.000000, -1408.000000)">
            <g id="logo-body" transform="translate(167.000000, 1408.000000)">
                <g id="Group-26-Copy" transform="translate(168.000000, 13.000000)">
                    <polygon id="Fill-1" fill="#FFFFFF" points="0 4 0 14 6 14 6 13.4281793 0.683673469 13.4281793 0.683673469 4"></polygon>
                    <path d="M7,5.04757548 L8,5.04757548 L8,4 L7,4 L7,5.04757548 Z M7.07643312,14 L7.91082803,14 L7.91082803,6.85910339 L7.07643312,6.85910339 L7.07643312,14 Z" id="Fill-2" fill="#FFFFFF"></path>
                    <g id="Group-25" transform="translate(1.000000, 0.000000)">
                        <path d="M10.9292033,7.35288462 L9.99117689,7.35288462 L9.99117689,6.78557692 L10.9292033,6.78557692 L10.9292033,6.43942308 C10.9292033,3.96346154 12.5420344,3.66057692 13.2886269,3.66057692 C13.5279193,3.66057692 13.6762807,3.68942308 13.6762807,3.68942308 L13.6762807,4.27596154 C13.6762807,4.27596154 13.5422769,4.24711538 13.3364854,4.24711538 C12.7382542,4.24711538 11.5561495,4.4875 11.5561495,6.425 L11.5561495,6.78557692 L13.6044929,6.78557692 L13.6044929,7.35288462 L11.5561495,7.35288462 L11.5561495,14.2423077 L10.9292033,14.2423077 L10.9292033,7.35288462 Z" id="Fill-3" fill="#FFFFFF"></path>
                        <g id="Group-7" transform="translate(14.357547, 6.538462)">
                            <mask id="mask-2" fill="white">
                                <use xlink:href="#path-1"></use>
                            </mask>
                            <g id="Clip-6"></g>
                            <path d="M6.41662623,3.26057692 C6.34005264,1.42884615 5.25366491,0.601923077 4.01413,0.601923077 C2.63580547,0.601923077 1.36755547,1.50576923 1.09954792,3.26057692 L6.41662623,3.26057692 Z M4.0237017,0.0201923077 C6.05768755,0.0201923077 7.07228755,1.62115385 7.07228755,3.43846154 C7.07228755,3.60673077 7.04357245,3.84711538 7.04357245,3.84711538 L1.05168943,3.84711538 C1.05168943,6.02019231 2.52094509,7.27019231 4.2486366,7.27019231 C5.68439132,7.27019231 6.56498755,6.32307692 6.56498755,6.32307692 L6.90956868,6.84711538 C6.90956868,6.84711538 5.86625358,7.88557692 4.2486366,7.88557692 C2.14286302,7.88557692 0.396028113,6.35673077 0.396028113,3.9625 C0.396028113,1.42884615 2.11414792,0.0201923077 4.0237017,0.0201923077 L4.0237017,0.0201923077 Z" id="Fill-5" fill="#FFFFFF" mask="url(#mask-2)"></path>
                        </g>
                        <mask id="mask-4" fill="white">
                            <use xlink:href="#path-3"></use>
                        </mask>
                        <g id="Clip-9"></g>
                        <polygon id="Fill-8" fill="#FFFFFF" mask="url(#mask-4)" points="23.7959585 14.2403846 24.7052698 14.2403846 24.7052698 13.2980769 23.7959585 13.2980769"></polygon>
                        <path d="M36.9637436,4.65336538 C36.9637436,4.65336538 36.7579521,5.64375 36.5617323,6.31682692 L34.35067,14.2399038 L33.5418615,14.2399038 L30.7947842,3.73509615 L31.4695889,3.73509615 L33.6758653,12.2927885 C33.8098691,12.7975962 33.9295153,13.4129808 33.9295153,13.4129808 L33.9630162,13.4129808 C33.9773738,13.4129808 34.09702,12.8120192 34.2453813,12.2927885 L36.6383058,3.73509615 L37.3513974,3.73509615 L39.7443219,12.2927885 C39.8926832,12.8120192 40.0123294,13.4129808 40.026687,13.4129808 L40.0554021,13.4129808 C40.0554021,13.4129808 40.1750483,12.7975962 40.3090521,12.2927885 L42.5919021,3.73509615 L43.2667068,3.73509615 L40.4430558,14.2399038 L39.6390332,14.2399038 L37.4279709,6.31682692 C37.2317511,5.64375 37.0259596,4.65336538 37.0259596,4.65336538 L36.9924587,4.65336538 L36.9637436,4.65336538 Z" id="Fill-10" fill="#FFFFFF" mask="url(#mask-4)"></path>
                        <path d="M50.6929088,9.79903846 C50.6163352,7.96730769 49.5299475,7.14038462 48.2904125,7.14038462 C46.912088,7.14038462 45.643838,8.04423077 45.3758305,9.79903846 L50.6929088,9.79903846 Z M48.3047701,6.55865385 C50.3339701,6.55865385 51.3485701,8.15961538 51.3485701,9.97692308 C51.3485701,10.1451923 51.319855,10.3855769 51.319855,10.3855769 L45.327972,10.3855769 C45.327972,12.5586538 46.7972276,13.8086538 48.529705,13.8086538 C49.9606739,13.8086538 50.8412701,12.8615385 50.8412701,12.8615385 L51.1858512,13.3855769 C51.1858512,13.3855769 50.1425361,14.4240385 48.529705,14.4240385 C46.4239314,14.4240385 44.6723107,12.8951923 44.6723107,10.5009615 C44.6723107,7.96730769 46.3904305,6.55865385 48.3047701,6.55865385 L48.3047701,6.55865385 Z" id="Fill-11" fill="#FFFFFF" mask="url(#mask-4)"></path>
                        <path d="M55.6773706,13.8370192 C57.3045592,13.8370192 58.233014,12.1350962 58.233014,10.6543269 L58.233014,10.2504808 L57.7544291,10.2504808 C56.4813932,10.2504808 53.7678168,10.2504808 53.7678168,12.1975962 C53.7678168,12.9956731 54.4091206,13.8370192 55.6773706,13.8370192 M57.7400715,9.66394231 L58.233014,9.66394231 L58.233014,9.40913462 C58.233014,7.74086538 57.376347,7.17355769 56.1846706,7.17355769 C54.8829196,7.17355769 54.0501819,7.89471154 54.0501819,7.89471154 L53.6912432,7.38509615 C53.6912432,7.38509615 54.586197,6.55817308 56.2133857,6.55817308 C57.9315055,6.55817308 58.8599602,7.51971154 58.8599602,9.38990385 L58.8599602,14.2408654 L58.233014,14.2408654 L58.233014,13.2504808 C58.233014,12.8466346 58.2904442,12.5725962 58.2904442,12.5725962 L58.2617291,12.5725962 C58.2760866,12.5725962 57.5869243,14.4235577 55.6486555,14.4235577 C54.4378357,14.4235577 53.1073696,13.7456731 53.1073696,12.2456731 C53.1073696,9.69759615 56.4096055,9.66394231 57.7400715,9.66394231" id="Fill-12" fill="#FFFFFF" mask="url(#mask-4)"></path>
                        <path d="M61.6898327,3.73317308 L62.316779,3.73317308 L62.316779,12.53125 C62.316779,13.5793269 62.8575799,13.6995192 63.1973752,13.6995192 C63.3170214,13.6995192 63.4223101,13.6850962 63.4223101,13.6850962 L63.4223101,14.2668269 C63.4223101,14.2668269 63.2883063,14.3004808 63.1543025,14.3004808 C62.7187903,14.3004808 61.6898327,14.1370192 61.6898327,12.7235577 L61.6898327,3.73317308 Z" id="Fill-13" fill="#FFFFFF" mask="url(#mask-4)"></path>
                        <path d="M65.6041787,7.35288462 L64.6182938,7.35288462 L64.6182938,6.78557692 L65.6041787,6.78557692 L65.6041787,4.65096154 L66.2311249,4.65096154 L66.2311249,6.78557692 L68.1885372,6.78557692 L68.1885372,7.35288462 L66.2311249,7.35288462 L66.2311249,11.4778846 C66.2311249,13.4634615 67.4084438,13.7134615 68.0066749,13.7134615 C68.2172523,13.7134615 68.351256,13.6846154 68.351256,13.6846154 L68.351256,14.2663462 C68.351256,14.2663462 68.2028947,14.3 67.9827457,14.3 C67.2026523,14.3 65.6041787,14.0163462 65.6041787,11.5211538 L65.6041787,7.35288462 Z" id="Fill-14" fill="#FFFFFF" mask="url(#mask-4)"></path>
                        <path d="M70.3737558,3.73317308 L71.0007021,3.73317308 L71.0007021,8.05528846 C71.0007021,8.40625 70.9432719,8.67067308 70.9432719,8.67067308 L70.971987,8.67067308 C71.225637,7.96875 72.2689521,6.56009615 74.1402191,6.56009615 C76.0784879,6.56009615 76.6001455,7.70913462 76.6001455,9.48317308 L76.6001455,14.2427885 L75.9731992,14.2427885 L75.9731992,9.70913462 C75.9731992,8.40625 75.8104804,7.17548077 74.1402191,7.17548077 C72.7331794,7.17548077 71.4936445,8.16105769 71.1203483,9.56009615 C71.0294172,9.87259615 71.0007021,10.21875 71.0007021,10.5841346 L71.0007021,14.2427885 L70.3737558,14.2427885 L70.3737558,3.73317308 Z" id="Fill-15" fill="#FFFFFF" mask="url(#mask-4)"></path>
                        <polygon id="Fill-16" fill="#FFFFFF" mask="url(#mask-4)" points="79.5463142 14.2403846 80.4556255 14.2403846 80.4556255 13.2980769 79.5463142 13.2980769"></polygon>
                        <polygon id="Fill-17" fill="#FFFFFF" mask="url(#mask-4)" points="87.5166672 3.73317308 92.7906728 3.73317308 92.7906728 4.33894231 88.1579709 4.33894231 88.1579709 8.71875 92.1637266 8.71875 92.1637266 9.31971154 88.1579709 9.31971154 88.1579709 14.2427885 87.5166672 14.2427885"></polygon>
                        <path d="M94.7610069,6.73798077 L95.3879531,6.73798077 L95.3879531,8.16105769 C95.3879531,8.50721154 95.3305229,8.77644231 95.3305229,8.77644231 L95.359238,8.77644231 C95.7325342,7.62740385 96.5700578,6.67548077 97.7521625,6.67548077 C97.9723116,6.67548077 98.182889,6.72355769 98.182889,6.72355769 L98.182889,7.35336538 C98.182889,7.35336538 98.0010267,7.32451923 97.8383078,7.32451923 C96.6705607,7.32451923 95.9431116,8.31490385 95.612888,9.42548077 C95.4501692,9.94951923 95.3879531,10.5024038 95.3879531,11.0024038 L95.3879531,14.2427885 L94.7610069,14.2427885 L94.7610069,6.73798077 Z" id="Fill-18" fill="#FFFFFF" mask="url(#mask-4)"></path>
                        <path d="M105.384156,9.79903846 C105.307582,7.96730769 104.216409,7.14038462 102.98166,7.14038462 C101.603335,7.14038462 100.335085,8.04423077 100.067078,9.79903846 L105.384156,9.79903846 Z M102.991232,6.55865385 C105.025217,6.55865385 106.039817,8.15961538 106.039817,9.97692308 C106.039817,10.1451923 106.011102,10.3855769 106.011102,10.3855769 L100.019219,10.3855769 C100.019219,12.5586538 101.483689,13.8086538 103.216166,13.8086538 C104.651921,13.8086538 105.532517,12.8615385 105.532517,12.8615385 L105.877098,13.3855769 C105.877098,13.3855769 104.828998,14.4240385 103.216166,14.4240385 C101.110393,14.4240385 99.3635579,12.8951923 99.3635579,10.5009615 C99.3635579,7.96730769 101.081678,6.55865385 102.991232,6.55865385 L102.991232,6.55865385 Z" id="Fill-19" fill="#FFFFFF" mask="url(#mask-4)"></path>
                        <path d="M114.018785,9.79903846 C113.946997,7.96730769 112.855824,7.14038462 111.616289,7.14038462 C110.24275,7.14038462 108.969714,8.04423077 108.701707,9.79903846 L114.018785,9.79903846 Z M111.630646,6.55865385 C113.659846,6.55865385 114.679232,8.15961538 114.679232,9.97692308 C114.679232,10.1451923 114.645731,10.3855769 114.645731,10.3855769 L108.658634,10.3855769 C108.658634,12.5586538 110.123104,13.8086538 111.855581,13.8086538 C113.28655,13.8086538 114.171932,12.8615385 114.171932,12.8615385 L114.511727,13.3855769 C114.511727,13.3855769 113.468412,14.4240385 111.855581,14.4240385 C109.749808,14.4240385 107.998187,12.8951923 107.998187,10.5009615 C107.998187,7.96730769 109.721092,6.55865385 111.630646,6.55865385 L111.630646,6.55865385 Z" id="Fill-20" fill="#FFFFFF" mask="url(#mask-4)"></path>
                        <path d="M119.942709,13.8086538 C121.316248,13.8086538 122.603641,12.8326923 122.603641,10.4769231 C122.603641,8.80865385 121.746974,7.17403846 120.004925,7.17403846 C118.540455,7.17403846 117.343993,8.38557692 117.343993,10.4913462 C117.343993,12.5105769 118.420809,13.8086538 119.942709,13.8086538 M120.03364,6.55865385 C121.914479,6.55865385 122.617998,8.25576923 122.617998,8.25576923 L122.646714,8.25576923 C122.646714,8.25576923 122.584498,7.98173077 122.584498,7.64038462 L122.584498,3.73173077 L123.21623,3.73173077 L123.21623,14.2413462 L122.584498,14.2413462 L122.584498,13.2990385 C122.584498,12.9480769 122.646714,12.7221154 122.646714,12.7221154 L122.617998,12.7221154 C122.617998,12.7221154 121.976695,14.4240385 119.913994,14.4240385 C117.913509,14.4240385 116.688332,12.8134615 116.688332,10.4913462 C116.688332,8.10192308 118.076228,6.55865385 120.03364,6.55865385" id="Fill-21" fill="#FFFFFF" mask="url(#mask-4)"></path>
                        <path d="M129.537858,13.8086538 C131.318193,13.8086538 132.749162,12.3471154 132.749162,10.4480769 C132.749162,8.58269231 131.318193,7.17403846 129.537858,7.17403846 C127.762308,7.17403846 126.326553,8.58269231 126.326553,10.4480769 C126.326553,12.3471154 127.762308,13.8086538 129.537858,13.8086538 M129.537858,6.55865385 C131.672346,6.55865385 133.404824,8.25576923 133.404824,10.4480769 C133.404824,12.6836538 131.672346,14.4240385 129.537858,14.4240385 C127.403369,14.4240385 125.670892,12.6836538 125.670892,10.4480769 C125.670892,8.25576923 127.403369,6.55865385 129.537858,6.55865385" id="Fill-22" fill="#FFFFFF" mask="url(#mask-4)"></path>
                        <path d="M135.860921,6.73798077 L136.487868,6.73798077 L136.487868,8.05528846 C136.487868,8.40625 136.430437,8.67067308 136.430437,8.67067308 L136.459153,8.67067308 C136.832449,7.54567308 138.158129,6.56009615 139.325876,6.56009615 C140.819061,6.56009615 141.522581,7.26201923 141.6853,8.59855769 L141.718801,8.59855769 C142.13517,7.54567308 143.269416,6.56009615 144.552023,6.56009615 C146.48072,6.56009615 147.045451,7.69951923 147.045451,9.48317308 L147.045451,14.2427885 L146.42329,14.2427885 L146.42329,9.70913462 C146.42329,8.29567308 146.136139,7.14182692 144.552023,7.14182692 C143.317274,7.14182692 142.254816,8.25240385 141.924592,9.42548077 C141.824089,9.77163462 141.776231,10.1466346 141.776231,10.5841346 L141.776231,14.2427885 L141.144499,14.2427885 L141.144499,9.70913462 C141.144499,8.42067308 140.967422,7.14182692 139.325876,7.14182692 C137.99541,7.14182692 136.952095,8.31490385 136.607514,9.56009615 C136.516583,9.87259615 136.487868,10.21875 136.487868,10.5841346 L136.487868,14.2427885 L135.860921,14.2427885 L135.860921,6.73798077 Z" id="Fill-23" fill="#FFFFFF" mask="url(#mask-4)"></path>
                        <polygon id="Fill-24" fill="#FFFFFF" mask="url(#mask-4)" points="150.003584 14.2403846 150.912895 14.2403846 150.912895 13.2980769 150.003584 13.2980769"></polygon>
                    </g>
                </g>
                <path d="M5.65,32 L5.65,18.23 L6.942,19.352 C8.778,21.324 10.58,23.296 12.416,25.234 C14.252,23.296 16.088,21.324 17.89,19.352 L19.182,18.23 L19.182,32 L24.18,32 L24.18,7.146 L24.078,7.146 L12.416,18.91 L0.754,7.146 L0.652,7.146 L0.652,32 L5.65,32 Z M36.964,32.476 C42.2,32.476 46.042,28.668 46.042,23.5 C46.042,18.332 42.2,14.524 36.964,14.524 C31.728,14.524 27.92,18.332 27.92,23.5 C27.92,28.668 31.728,32.476 36.964,32.476 Z M36.964,28.192 C34.55,28.192 32.714,26.322 32.714,23.5 C32.714,20.678 34.55,18.808 36.964,18.808 C39.378,18.808 41.248,20.678 41.248,23.5 C41.248,26.322 39.378,28.192 36.964,28.192 Z M54.576,32 L54.576,23.534 C54.576,20.984 56.174,19.148 58.554,19.148 C60.39,19.148 60.866,20.542 60.866,22.208 L60.866,32 L65.966,32 L65.966,21.358 C65.966,16.87 63.892,14.524 60.05,14.524 C57.16,14.524 54.916,16.564 54.202,18.128 L54.134,18.128 C54.168,17.958 54.304,17.55 54.27,16.938 L54.134,15 L49.476,15 L49.476,32 L54.576,32 Z M75.282,32.476 C79.6,32.476 82.286,30.572 82.286,27.308 C82.286,24.248 80.45,22.888 76.574,21.8 C74.772,21.256 73.922,20.814 73.922,19.964 C73.922,19.216 74.636,18.876 75.35,18.74 C75.826,18.638 76.37,18.638 76.914,18.672 C78.41,18.808 80.11,19.352 81.232,19.93 L81.232,15.578 C80.212,15.136 78.172,14.524 75.724,14.524 C71.78,14.524 69.264,16.564 69.264,19.726 C69.264,23.024 71.508,24.35 74.67,25.234 C76.608,25.812 77.628,26.186 77.628,27.104 C77.628,28.124 76.472,28.464 75.214,28.464 C73.548,28.464 71.1,27.75 69.502,26.9 L69.502,31.354 C70.726,31.898 72.698,32.476 75.282,32.476 Z M91.636,32.476 C93.642,32.476 95.206,32.068 95.954,31.694 L95.954,27.512 C95.206,27.886 94.118,28.226 93.064,28.226 C91.942,28.226 90.888,27.614 90.888,25.812 L90.888,18.978 L95.41,18.978 L95.41,15 L90.888,15 L90.888,9.9 L85.958,9.9 L85.958,15 L83.51,15 L83.51,18.978 L85.856,18.978 L85.856,25.914 C85.856,26.526 85.924,27.104 85.958,27.648 C86.332,31.218 88.95,32.476 91.636,32.476 Z M103.808,32 L103.808,24.758 C103.808,21.664 105.916,19.386 108.5,19.386 C109.146,19.386 109.554,19.556 109.622,19.59 L109.622,14.626 C109.554,14.592 109.078,14.524 108.534,14.524 C106.324,14.524 104.556,15.952 103.502,17.788 C103.468,17.584 103.468,17.176 103.468,16.666 L103.366,15 L98.742,15 L98.742,32 L103.808,32 Z M120.298,32.476 C125.534,32.476 129.376,28.668 129.376,23.5 C129.376,18.332 125.534,14.524 120.298,14.524 C115.062,14.524 111.254,18.332 111.254,23.5 C111.254,28.668 115.062,32.476 120.298,32.476 Z M120.298,28.192 C117.884,28.192 116.048,26.322 116.048,23.5 C116.048,20.678 117.884,18.808 120.298,18.808 C122.712,18.808 124.582,20.678 124.582,23.5 C124.582,26.322 122.712,28.192 120.298,28.192 Z" id="Monstro" fill="#FFFFFF" fill-rule="nonzero"></path>
                <line x1="148.5" y1="0.5" x2="148.5" y2="42.5" id="Line-3" stroke="#FFFFFF" opacity="0.513811384" stroke-linecap="square"></line>
            </g>
        </g>
    </g>
</svg>