<?xml version="1.0" encoding="UTF-8"?>
<svg width="130px" height="26px" viewBox="0 0 130 26" version="1.1" xmlns="http://www.w3.org/2000/svg" xmlns:xlink="http://www.w3.org/1999/xlink">
    <!-- Generator: Sketch 63.1 (92452) - https://sketch.com -->
    <title>Monstro</title>
    <desc>Created with Sketch.</desc>
    <g id="Symbols" stroke="none" stroke-width="1" fill="none" fill-rule="evenodd">
        <g id="footer-desktop" transform="translate(-167.000000, -66.000000)" fill="#A98E7F" fill-rule="nonzero">
            <path d="M172.65,91 L172.65,77.23 L173.942,78.352 C175.778,80.324 177.58,82.296 179.416,84.234 C181.252,82.296 183.088,80.324 184.89,78.352 L186.182,77.23 L186.182,91 L191.18,91 L191.18,66.146 L191.078,66.146 L179.416,77.91 L167.754,66.146 L167.652,66.146 L167.652,91 L172.65,91 Z M203.964,91.476 C209.2,91.476 213.042,87.668 213.042,82.5 C213.042,77.332 209.2,73.524 203.964,73.524 C198.728,73.524 194.92,77.332 194.92,82.5 C194.92,87.668 198.728,91.476 203.964,91.476 Z M203.964,87.192 C201.55,87.192 199.714,85.322 199.714,82.5 C199.714,79.678 201.55,77.808 203.964,77.808 C206.378,77.808 208.248,79.678 208.248,82.5 C208.248,85.322 206.378,87.192 203.964,87.192 Z M221.576,91 L221.576,82.534 C221.576,79.984 223.174,78.148 225.554,78.148 C227.39,78.148 227.866,79.542 227.866,81.208 L227.866,91 L232.966,91 L232.966,80.358 C232.966,75.87 230.892,73.524 227.05,73.524 C224.16,73.524 221.916,75.564 221.202,77.128 L221.134,77.128 C221.168,76.958 221.304,76.55 221.27,75.938 L221.134,74 L216.476,74 L216.476,91 L221.576,91 Z M242.282,91.476 C246.6,91.476 249.286,89.572 249.286,86.308 C249.286,83.248 247.45,81.888 243.574,80.8 C241.772,80.256 240.922,79.814 240.922,78.964 C240.922,78.216 241.636,77.876 242.35,77.74 C242.826,77.638 243.37,77.638 243.914,77.672 C245.41,77.808 247.11,78.352 248.232,78.93 L248.232,74.578 C247.212,74.136 245.172,73.524 242.724,73.524 C238.78,73.524 236.264,75.564 236.264,78.726 C236.264,82.024 238.508,83.35 241.67,84.234 C243.608,84.812 244.628,85.186 244.628,86.104 C244.628,87.124 243.472,87.464 242.214,87.464 C240.548,87.464 238.1,86.75 236.502,85.9 L236.502,90.354 C237.726,90.898 239.698,91.476 242.282,91.476 Z M258.636,91.476 C260.642,91.476 262.206,91.068 262.954,90.694 L262.954,86.512 C262.206,86.886 261.118,87.226 260.064,87.226 C258.942,87.226 257.888,86.614 257.888,84.812 L257.888,77.978 L262.41,77.978 L262.41,74 L257.888,74 L257.888,68.9 L252.958,68.9 L252.958,74 L250.51,74 L250.51,77.978 L252.856,77.978 L252.856,84.914 C252.856,85.526 252.924,86.104 252.958,86.648 C253.332,90.218 255.95,91.476 258.636,91.476 Z M270.808,91 L270.808,83.758 C270.808,80.664 272.916,78.386 275.5,78.386 C276.146,78.386 276.554,78.556 276.622,78.59 L276.622,73.626 C276.554,73.592 276.078,73.524 275.534,73.524 C273.324,73.524 271.556,74.952 270.502,76.788 C270.468,76.584 270.468,76.176 270.468,75.666 L270.366,74 L265.742,74 L265.742,91 L270.808,91 Z M287.298,91.476 C292.534,91.476 296.376,87.668 296.376,82.5 C296.376,77.332 292.534,73.524 287.298,73.524 C282.062,73.524 278.254,77.332 278.254,82.5 C278.254,87.668 282.062,91.476 287.298,91.476 Z M287.298,87.192 C284.884,87.192 283.048,85.322 283.048,82.5 C283.048,79.678 284.884,77.808 287.298,77.808 C289.712,77.808 291.582,79.678 291.582,82.5 C291.582,85.322 289.712,87.192 287.298,87.192 Z" id="Monstro"></path>
        </g>
    </g>
</svg>