<?xml version="1.0" encoding="UTF-8"?>
<svg width="130px" height="51px" viewBox="0 0 130 51" version="1.1" xmlns="http://www.w3.org/2000/svg" xmlns:xlink="http://www.w3.org/1999/xlink">
    <!-- Generator: sketchtool 63.1 (101010) - https://sketch.com -->
    <title>FD1960B6-AE0A-472B-9677-4C9D53013EDD</title>
    <desc>Created with sketchtool.</desc>
    <g id="Design-Mockups-v3" stroke="none" stroke-width="1" fill="none" fill-rule="evenodd">
        <g id="monstro-microsite-home-mobile" transform="translate(-123.000000, -30.000000)" fill="#FFFFFF" fill-rule="nonzero">
            <g id="logo-header-mobile" transform="translate(121.000000, 18.000000)">
                <path d="M7.935,37 L7.935,23.23 L9.227,24.352 C11.063,26.324 12.865,28.296 14.701,30.234 C16.537,28.296 18.373,26.324 20.175,24.352 L21.467,23.23 L21.467,37 L26.465,37 L26.465,12.146 L26.363,12.146 L14.701,23.91 L3.039,12.146 L2.937,12.146 L2.937,37 L7.935,37 Z M39.249,37.476 C44.485,37.476 48.327,33.668 48.327,28.5 C48.327,23.332 44.485,19.524 39.249,19.524 C34.013,19.524 30.205,23.332 30.205,28.5 C30.205,33.668 34.013,37.476 39.249,37.476 Z M39.249,33.192 C36.835,33.192 34.999,31.322 34.999,28.5 C34.999,25.678 36.835,23.808 39.249,23.808 C41.663,23.808 43.533,25.678 43.533,28.5 C43.533,31.322 41.663,33.192 39.249,33.192 Z M56.861,37 L56.861,28.534 C56.861,25.984 58.459,24.148 60.839,24.148 C62.675,24.148 63.151,25.542 63.151,27.208 L63.151,37 L68.251,37 L68.251,26.358 C68.251,21.87 66.177,19.524 62.335,19.524 C59.445,19.524 57.201,21.564 56.487,23.128 L56.419,23.128 C56.453,22.958 56.589,22.55 56.555,21.938 L56.419,20 L51.761,20 L51.761,37 L56.861,37 Z M77.567,37.476 C81.885,37.476 84.571,35.572 84.571,32.308 C84.571,29.248 82.735,27.888 78.859,26.8 C77.057,26.256 76.207,25.814 76.207,24.964 C76.207,24.216 76.921,23.876 77.635,23.74 C78.111,23.638 78.655,23.638 79.199,23.672 C80.695,23.808 82.395,24.352 83.517,24.93 L83.517,20.578 C82.497,20.136 80.457,19.524 78.009,19.524 C74.065,19.524 71.549,21.564 71.549,24.726 C71.549,28.024 73.793,29.35 76.955,30.234 C78.893,30.812 79.913,31.186 79.913,32.104 C79.913,33.124 78.757,33.464 77.499,33.464 C75.833,33.464 73.385,32.75 71.787,31.9 L71.787,36.354 C73.011,36.898 74.983,37.476 77.567,37.476 Z M93.921,37.476 C95.927,37.476 97.491,37.068 98.239,36.694 L98.239,32.512 C97.491,32.886 96.403,33.226 95.349,33.226 C94.227,33.226 93.173,32.614 93.173,30.812 L93.173,23.978 L97.695,23.978 L97.695,20 L93.173,20 L93.173,14.9 L88.243,14.9 L88.243,20 L85.795,20 L85.795,23.978 L88.141,23.978 L88.141,30.914 C88.141,31.526 88.209,32.104 88.243,32.648 C88.617,36.218 91.235,37.476 93.921,37.476 Z M106.093,37 L106.093,29.758 C106.093,26.664 108.201,24.386 110.785,24.386 C111.431,24.386 111.839,24.556 111.907,24.59 L111.907,19.626 C111.839,19.592 111.363,19.524 110.819,19.524 C108.609,19.524 106.841,20.952 105.787,22.788 C105.753,22.584 105.753,22.176 105.753,21.666 L105.651,20 L101.027,20 L101.027,37 L106.093,37 Z M122.583,37.476 C127.819,37.476 131.661,33.668 131.661,28.5 C131.661,23.332 127.819,19.524 122.583,19.524 C117.347,19.524 113.539,23.332 113.539,28.5 C113.539,33.668 117.347,37.476 122.583,37.476 Z M122.583,33.192 C120.169,33.192 118.333,31.322 118.333,28.5 C118.333,25.678 120.169,23.808 122.583,23.808 C124.997,23.808 126.867,25.678 126.867,28.5 C126.867,31.322 124.997,33.192 122.583,33.192 Z" id="Monstro"></path>
                <path d="M22.98,60.12 L22.98,52.81 L22.41,52.81 L22.41,58.16 C22.41,58.35 22.41,58.51 22.42,58.62 C22.38,58.56 22.29,58.46 22.22,58.37 L17.52,52.68 L17.51,52.68 L17.51,60 L18.09,60 L18.09,54.64 C18.09,54.45 18.08,54.3 18.07,54.18 C18.11,54.25 18.2,54.35 18.27,54.43 L22.97,60.12 L22.98,60.12 Z M27.16,60.12 C28.6,60.12 29.67,59 29.67,57.5 C29.67,56 28.6,54.88 27.16,54.88 C25.72,54.88 24.65,56 24.65,57.5 C24.65,59 25.72,60.12 27.16,60.12 Z M27.16,59.61 C26.02,59.61 25.21,58.72 25.21,57.5 C25.21,56.28 26.02,55.39 27.16,55.39 C28.3,55.39 29.11,56.28 29.11,57.5 C29.11,58.72 28.3,59.61 27.16,59.61 Z M36.08,60.12 C37.52,60.12 38.59,59 38.59,57.5 C38.59,56 37.52,54.88 36.08,54.88 C34.64,54.88 33.57,56 33.57,57.5 C33.57,59 34.64,60.12 36.08,60.12 Z M36.08,59.61 C34.94,59.61 34.13,58.72 34.13,57.5 C34.13,56.28 34.94,55.39 36.08,55.39 C37.22,55.39 38.03,56.28 38.03,57.5 C38.03,58.72 37.22,59.61 36.08,59.61 Z M40.8,60 L40.8,57.55 C40.8,56.34 41.66,55.41 42.79,55.41 C43.84,55.41 43.95,56.18 43.95,57 L43.95,60 L44.5,60 L44.5,56.84 C44.5,55.64 44.12,54.88 42.84,54.88 C41.64,54.88 40.95,55.77 40.77,56.24 L40.75,56.24 C40.76,56.23 40.79,56.06 40.79,55.83 L40.79,55 L40.25,55 L40.25,60 L40.8,60 Z M48.52,60.12 C49.28,60.12 49.95,59.9 50.39,59.64 L50.39,59.08 C49.88,59.41 49.2,59.61 48.53,59.61 C47.36,59.61 46.56,58.79 46.56,57.59 L46.56,57.52 L50.57,57.52 C50.57,57.44 50.58,57.33 50.58,57.22 C50.58,55.99 49.79,54.88 48.37,54.88 C47.02,54.88 45.98,55.99 45.98,57.5 C45.98,59.06 47.04,60.12 48.52,60.12 Z M50,57.09 L46.58,57.09 C46.69,56.22 47.32,55.39 48.36,55.39 C49.43,55.39 50,56.22 50,57.09 Z M55.42,60 L55.42,57.59 C55.42,56.55 56.1,55.41 57.23,55.41 C58.25,55.41 58.37,56.18 58.37,56.99 L58.37,60 L58.92,60 L58.92,57.59 C58.92,56.57 59.55,55.41 60.69,55.41 C61.68,55.41 61.86,56.11 61.86,57 L61.86,60 L62.42,60 L62.42,56.84 C62.42,55.63 62,54.88 60.72,54.88 C59.89,54.88 59.15,55.5 58.87,56.18 L58.85,56.18 C58.73,55.33 58.22,54.88 57.29,54.88 C56.49,54.88 55.65,55.5 55.39,56.24 L55.37,56.24 C55.38,56.23 55.41,56.06 55.41,55.83 L55.41,55 L54.87,55 L54.87,60 L55.42,60 Z M65.34,60.12 C66.63,60.12 67.25,58.92 67.25,58.88 L67.27,58.88 C67.27,58.88 67.23,59.06 67.24,59.32 L67.24,60 L67.77,60 L67.77,56.78 C67.77,55.53 67.14,54.88 65.81,54.88 C65.03,54.88 64.39,55.11 64.11,55.26 L64.11,55.81 C64.37,55.65 65.02,55.39 65.76,55.39 C66.64,55.39 67.22,55.75 67.22,56.8 L67.22,57.18 C65.16,56.87 63.8,57.49 63.8,58.75 C63.8,59.56 64.42,60.12 65.34,60.12 Z M65.4,59.62 C64.77,59.62 64.37,59.25 64.37,58.72 C64.37,57.82 65.43,57.34 67.22,57.63 C67.22,58.58 66.45,59.62 65.4,59.62 Z M70.23,60 L70.23,57.55 C70.23,56.34 71.09,55.41 72.22,55.41 C73.27,55.41 73.38,56.18 73.38,57 L73.38,60 L73.93,60 L73.93,56.84 C73.93,55.64 73.55,54.88 72.27,54.88 C71.07,54.88 70.38,55.77 70.2,56.24 L70.18,56.24 C70.19,56.23 70.22,56.06 70.22,55.83 L70.22,55 L69.68,55 L69.68,60 L70.23,60 Z M76.86,60.12 C78.15,60.12 78.77,58.92 78.77,58.88 L78.79,58.88 C78.79,58.88 78.75,59.06 78.76,59.32 L78.76,60 L79.29,60 L79.29,56.78 C79.29,55.53 78.66,54.88 77.33,54.88 C76.55,54.88 75.91,55.11 75.63,55.26 L75.63,55.81 C75.89,55.65 76.54,55.39 77.28,55.39 C78.16,55.39 78.74,55.75 78.74,56.8 L78.74,57.18 C76.68,56.87 75.32,57.49 75.32,58.75 C75.32,59.56 75.94,60.12 76.86,60.12 Z M76.92,59.62 C76.29,59.62 75.89,59.25 75.89,58.72 C75.89,57.82 76.95,57.34 78.74,57.63 C78.74,58.58 77.97,59.62 76.92,59.62 Z M82.91,62.14 C84.25,62.14 85.17,61.57 85.17,60.67 C85.17,59.76 84.4,59.38 83.18,59.26 C82.2,59.17 81.92,59.07 81.92,58.8 C81.92,58.59 82.28,58.39 82.73,58.36 L82.79,58.36 C83.87,58.34 84.68,57.62 84.68,56.63 C84.68,56.12 84.46,55.69 84.1,55.4 L84.14,55.4 C84.14,55.4 84.34,55.46 84.51,55.46 L85.28,55.46 L85.28,55 L83.48,55 C83.26,54.92 83,54.88 82.74,54.88 C81.63,54.88 80.8,55.61 80.8,56.63 C80.8,57.39 81.27,58 81.98,58.25 C81.61,58.37 81.36,58.61 81.36,58.88 C81.36,59.2 81.64,59.44 82.16,59.49 C81.36,59.64 80.7,60.15 80.7,60.77 C80.7,61.66 81.58,62.14 82.91,62.14 Z M82.74,57.89 C81.92,57.89 81.35,57.36 81.35,56.63 C81.35,55.91 81.92,55.37 82.74,55.37 C83.56,55.37 84.14,55.91 84.14,56.63 C84.14,57.36 83.56,57.89 82.74,57.89 Z M82.92,61.66 C81.93,61.66 81.26,61.34 81.26,60.72 C81.26,60.2 81.9,59.73 82.84,59.73 C84.19,59.73 84.61,60.19 84.61,60.7 C84.61,61.27 83.99,61.66 82.92,61.66 Z M88.65,60.12 C89.41,60.12 90.08,59.9 90.52,59.64 L90.52,59.08 C90.01,59.41 89.33,59.61 88.66,59.61 C87.49,59.61 86.69,58.79 86.69,57.59 L86.69,57.52 L90.7,57.52 C90.7,57.44 90.71,57.33 90.71,57.22 C90.71,55.99 89.92,54.88 88.5,54.88 C87.15,54.88 86.11,55.99 86.11,57.5 C86.11,59.06 87.17,60.12 88.65,60.12 Z M90.13,57.09 L86.71,57.09 C86.82,56.22 87.45,55.39 88.49,55.39 C89.56,55.39 90.13,56.22 90.13,57.09 Z M93.48,60.12 C94.46,60.12 95.22,59.69 95.22,58.78 C95.22,57.99 94.68,57.59 93.6,57.25 C92.79,56.99 92.37,56.73 92.37,56.22 C92.37,55.69 92.84,55.38 93.6,55.38 C94.03,55.38 94.54,55.52 94.93,55.72 L94.93,55.18 C94.55,55 94.02,54.88 93.55,54.88 C92.55,54.88 91.83,55.39 91.83,56.22 C91.83,57.03 92.51,57.46 93.37,57.73 C94.26,58 94.68,58.23 94.68,58.79 C94.68,59.37 94.09,59.62 93.45,59.62 C92.97,59.62 92.37,59.48 91.85,59.24 L91.85,59.79 C92.28,59.99 92.88,60.12 93.48,60.12 Z M98.82,62.32 C100.17,62.32 100.64,61.23 101.3,59.64 L103.29,55 L102.66,55 L101.89,56.85 C101.56,57.63 101.2,58.5 100.87,59.27 C100.54,58.46 100.2,57.66 99.86,56.85 L99.08,55 L98.46,55 L100.57,59.9 C100.11,61.03 99.69,61.82 98.8,61.82 C98.56,61.82 98.4,61.79 98.28,61.76 L98.28,62.24 C98.38,62.28 98.59,62.32 98.82,62.32 Z M106.49,60.12 C107.93,60.12 109,59 109,57.5 C109,56 107.93,54.88 106.49,54.88 C105.05,54.88 103.98,56 103.98,57.5 C103.98,59 105.05,60.12 106.49,60.12 Z M106.49,59.61 C105.35,59.61 104.54,58.72 104.54,57.5 C104.54,56.28 105.35,55.39 106.49,55.39 C107.63,55.39 108.44,56.28 108.44,57.5 C108.44,58.72 107.63,59.61 106.49,59.61 Z M112.17,60.12 C113.33,60.12 114.01,59.23 114.18,58.76 L114.2,58.76 C114.2,58.77 114.16,58.94 114.16,59.17 L114.17,60 L114.71,60 L114.71,55 L114.15,55 L114.15,57.45 C114.15,58.58 113.38,59.59 112.21,59.59 C111.17,59.59 111.06,58.83 111.06,58 L111.06,55 L110.51,55 L110.51,58.16 C110.51,59.43 110.94,60.12 112.17,60.12 Z M116.66,60.12 C116.89,60.12 117.07,59.95 117.07,59.72 C117.07,59.48 116.89,59.31 116.66,59.31 C116.42,59.31 116.25,59.48 116.25,59.72 C116.25,59.95 116.42,60.12 116.66,60.12 Z" id="Noonemanagesyou." opacity="0.572544643"></path>
            </g>
        </g>
    </g>
</svg>