<?xml version="1.0" encoding="UTF-8"?>
<svg width="38px" height="38px" viewBox="0 0 38 38" version="1.1" xmlns="http://www.w3.org/2000/svg" xmlns:xlink="http://www.w3.org/1999/xlink">
    <!-- Generator: sketchtool 63.1 (101010) - https://sketch.com -->
    <title>EDEBF8C9-2984-4118-A3ED-F52C55809C91</title>
    <desc>Created with sketchtool.</desc>
    <g id="Design-Mockups-v3" stroke="none" stroke-width="1" fill="none" fill-rule="evenodd">
        <g id="monstro-menu-mobile" transform="translate(-142.000000, -595.000000)" fill="#8C6F5E" fill-rule="nonzero">
            <g id="icon-social-twitter" transform="translate(142.000000, 596.000000)">
                <path d="M18.7787513,-0.405 C8.56107749,-0.405 0.278,7.87958008 0.278,18.0957513 C0.278,28.3134251 8.56107749,36.595 18.7787513,36.595 C28.9964251,36.595 37.278,28.3134251 37.278,18.0957513 C37.278,7.87958008 28.9956738,-0.405 18.7787513,-0.405 Z M27.9237831,15.0790744 C27.9336683,15.2738431 27.9374704,15.4693441 27.9374704,15.6670417 C27.9374704,21.6719231 23.1910162,28.595 14.5117422,28.595 C11.8472796,28.595 9.36607485,27.8430169 7.278,26.5543215 C7.64755731,26.5960576 8.02243746,26.6172918 8.40340087,26.6172918 C10.6146615,26.6172918 12.6495079,25.8909362 14.2638498,24.6725333 C12.1993476,24.6351904 10.4572574,23.3208675 9.85653671,21.5159616 C10.1439702,21.5701454 10.4397681,21.5972373 10.7439305,21.5972373 C11.1743203,21.5972373 11.5910228,21.5430535 11.9871943,21.438347 C9.82764129,21.0209854 8.20113287,19.18313 8.20113287,16.9835612 C8.20113287,16.9637914 8.20113287,16.9447539 8.20189328,16.9249841 C8.83759269,17.2654633 9.56530122,17.4697508 10.3393945,17.4939139 C9.07255814,16.677496 8.23991358,15.2884874 8.23991358,13.7112999 C8.23991358,12.8787733 8.47259781,12.0975017 8.87865461,11.4267943 C11.2062573,14.1755231 14.6835939,15.9848222 18.605768,16.1737333 C18.525165,15.8420406 18.4833427,15.4942393 18.4833427,15.1383836 C18.4833427,12.6298208 20.5957505,10.595 23.2024223,10.595 C24.559747,10.595 25.7855214,11.1470888 26.646301,12.0294059 C27.7215151,11.8265828 28.7313342,11.4472963 29.643061,10.9266926 C29.2894722,11.9884019 28.5419931,12.8787733 27.5671526,13.440381 C28.522983,13.330549 29.4324285,13.0859897 30.278,12.7250085 C29.646863,13.6380786 28.8461555,14.4383877 27.9237831,15.0790744 Z" id="Shape"></path>
            </g>
        </g>
    </g>
</svg>